<svg id="Layer_1" data-name="Layer 1" xmlns="http://www.w3.org/2000/svg" viewBox="0 0 765.75 116.49"><defs><style>.cls-1,.cls-6{fill:#00af87;}.cls-2{fill:#000a12;}.cls-3{fill:#f8c40f;}.cls-4{fill:#fff;}.cls-5{fill:#ef6945;}.cls-6{opacity:0.5;}</style></defs><title>Artboard 1</title><path class="cls-1" d="M549,11.39a7.45,7.45,0,1,0,7.45-7.46A7.46,7.46,0,0,0,549,11.39"/><path class="cls-2" d="M195,10.87l-11.29,3.89V29.51H171.23v9.89h12.16V71.13c0,15.11,5.15,21.26,17.77,21.26a35.45,35.45,0,0,0,9.34-1.22L211,91l-.14-10.24-.87.31a18.72,18.72,0,0,1-5.92,1.3c-5.93,0-8.13-3.35-8.13-12.35V39.39h14.46V29.51H195.92V10.57Z"/><path class="cls-2" d="M234.11,39.52v-10H222.67V91.31H235.2v-31c0-13,5.46-20.18,15.36-20.18a15.84,15.84,0,0,1,4.51.7l.82.23.41-12.21-5.38-.42c-7.26,0-13.13,3.92-16.8,11.1"/><path class="cls-2" d="M323.55,28.06c-8.59,0-15.83,4.09-20.65,11.49v-10H291.45v87H304V82.77a22.77,22.77,0,0,0,19.09,9.5c15.85,0,26.08-13,26.08-33.06,0-18.63-10.28-31.15-25.6-31.15m-3.49,54.1C310.15,82.15,304,73.68,304,60c0-13.13,6.5-21.62,16.56-21.62,9.69,0,15.48,8,15.48,21.51,0,13.7-6.11,22.22-16,22.22"/><path class="cls-1" d="M385.77,28.06a46.3,46.3,0,0,0-20.52,4.4l-.39.18.14,10.7,1-.55c5.89-3.3,11.46-5,16.54-5,9.07,0,14.27,5.2,14.27,14.27v.53h-7.16c-20.63,0-32,7.47-32,21,0,10.89,8.2,18.49,19.93,18.49,8.64,0,15.31-3.39,20.06-9.78v8.94H409V53.9c0-17.15-7.8-25.84-23.2-25.84m11,37.17c0,10.65-6.41,17.52-16.33,17.52-6.06,0-10.3-4-10.3-9.7,0-7.5,7.17-11.62,20.18-11.62h6.45Z"/><path class="cls-1" d="M462.2,0V37.89a22.6,22.6,0,0,0-19.33-9.84c-15.3,0-25.59,12.62-25.59,31.38,0,19.33,10.42,32.83,25.36,32.83,8.85,0,15.73-3.91,20.54-11.54V91.31h11.57V0ZM445.89,81.91c-9.55,0-15.49-8.32-15.49-21.74s6-22.1,15.24-22.1c10.37,0,16.55,8.26,16.55,22.1,0,13.21-6.4,21.74-16.31,21.74"/><polygon class="cls-1" points="530.74 29.51 512.96 65.18 496.54 29.51 482.41 29.51 512.7 91.31 543.83 29.51 530.74 29.51"/><polygon class="cls-1" points="562.08 29.51 550.21 29.51 550.21 91.31 562.75 91.31 562.75 29.51 562.08 29.51"/><path class="cls-1" d="M577.44,45.35c0,8.7,6,13.28,17,18.66,7,3.42,10.6,5.43,10.6,10.25s-4.48,8.13-11.39,8.13a36.42,36.42,0,0,1-15.73-4l-.92-.45-.42,10.89L577,89A43.93,43.93,0,0,0,593.16,92c15.33,0,25.24-7.31,25.24-18.61,0-9.43-6.28-14.21-17.13-19.27-8-3.73-11.3-5.92-11.3-9.88,0-3.77,3.71-6.2,9.45-6.2a34.74,34.74,0,0,1,15,3.43l.89.43.57-10.68-.5-.15a54.14,54.14,0,0,0-15.25-2.31c-13.58,0-22.71,6.65-22.71,16.57"/><path class="cls-1" d="M657.49,28.06c-18.84,0-30.54,12.4-30.54,32.35s11.7,32.35,30.54,32.35,30.66-12.4,30.66-32.35S676.4,28.06,657.49,28.06m.12,54.46c-10.41,0-17.41-8.93-17.41-22.23s7-22.34,17.41-22.34c10.58,0,17.41,8.76,17.41,22.34s-6.83,22.23-17.41,22.23"/><path class="cls-1" d="M711.27,39.52v-10H699.83V91.31h12.52v-31c0-13,5.46-20.18,15.36-20.18a15.83,15.83,0,0,1,4.51.7l.82.23.41-12.21-5.38-.42c-7.25,0-13.13,3.92-16.8,11.1"/><polygon class="cls-2" points="278.64 29.51 266.76 29.51 266.76 91.31 279.3 91.31 279.3 29.51 278.64 29.51"/><path class="cls-2" d="M265.55,11.39A7.46,7.46,0,1,0,273,3.93a7.47,7.47,0,0,0-7.46,7.46"/><path class="cls-3" d="M102.48,18a38.33,38.33,0,0,1,12.18-2.34c-11.08-5-23.62-7.47-37.52-7.47a95.65,95.65,0,0,0-37.63,7.32,38.72,38.72,0,0,1,37.8,35.86A38.59,38.59,0,0,1,102.48,18"/><path class="cls-4" d="M115.82,41.28a12.54,12.54,0,1,0,12.53,12.53,12.55,12.55,0,0,0-12.53-12.53m0,19a6.44,6.44,0,1,1,6.42-6.44,6.43,6.43,0,0,1-6.42,6.44"/><path class="cls-4" d="M105.19,25.31A30.88,30.88,0,0,0,86.91,65h0a30.9,30.9,0,1,0,18.28-39.7m10.63,47.63a19.12,19.12,0,1,1,19.11-19.12,19.15,19.15,0,0,1-19.11,19.12"/><path class="cls-4" d="M38.26,41.28A12.54,12.54,0,1,0,50.77,53.81,12.56,12.56,0,0,0,38.26,41.28m0,19a6.44,6.44,0,1,1,6.43-6.44,6.44,6.44,0,0,1-6.43,6.44"/><path class="cls-4" d="M38.74,23.25a30.9,30.9,0,1,0,30.89,30.9,30.94,30.94,0,0,0-30.89-30.9m-.48,49.68A19.12,19.12,0,1,1,57.36,53.81,19.15,19.15,0,0,1,38.26,72.94"/><path class="cls-5" d="M38.24,47.38a6.44,6.44,0,1,0,6.43,6.43,6.43,6.43,0,0,0-6.43-6.43"/><path class="cls-1" d="M115.82,47.38a6.44,6.44,0,1,0,6.42,6.43,6.42,6.42,0,0,0-6.42-6.43"/><path class="cls-2" d="M147,31.23c1.82-7.74,7.61-15.48,7.61-15.48H128.75C114.26,6.37,96.65,1.41,77.15,1.41c-20.23,0-38.5,5.09-52.9,14.51L0,15.93s5.72,7.64,7.58,15.34A38.67,38.67,0,0,0,68.92,78.34l8.24,12.34,8.32-12.44a38.7,38.7,0,0,0,61.49-47M103,82.36A30.67,30.67,0,0,1,86.91,65h0a30.91,30.91,0,1,1,16,17.36M38.74,85a30.9,30.9,0,1,1,30.9-30.89A30.93,30.93,0,0,1,38.74,85M102.48,18A38.59,38.59,0,0,0,77.31,51.34a38.72,38.72,0,0,0-37.8-35.86A95.65,95.65,0,0,1,77.15,8.16c13.89,0,26.44,2.51,37.52,7.47A38.33,38.33,0,0,0,102.48,18"/><path class="cls-2" d="M38.26,34.7A19.12,19.12,0,1,0,57.36,53.81,19.15,19.15,0,0,0,38.26,34.7m0,31.65A12.54,12.54,0,1,1,50.77,53.81,12.56,12.56,0,0,1,38.26,66.35"/><path class="cls-2" d="M115.82,34.7a19.12,19.12,0,1,0,19.11,19.11A19.14,19.14,0,0,0,115.82,34.7m0,31.65a12.54,12.54,0,1,1,12.53-12.54,12.55,12.55,0,0,1-12.53,12.54"/><path class="cls-6" d="M762.69,22.15a10.76,10.76,0,0,1,3.07,7.67,10.57,10.57,0,0,1-3.25,7.79,11.13,11.13,0,0,1-7.74,3.19A10.75,10.75,0,0,1,747,37.47a10.89,10.89,0,0,1-3.16-7.64,11.07,11.07,0,0,1,3.34-7.89,10.63,10.63,0,0,1,7.61-3.1A10.84,10.84,0,0,1,762.69,22.15Zm-14.14,1.21a9.07,9.07,0,0,0-2.71,6.47,9,9,0,0,0,8.93,9,9.13,9.13,0,0,0,6.36-2.58,8.78,8.78,0,0,0,2.65-6.38,8.93,8.93,0,0,0-9-9A8.69,8.69,0,0,0,748.55,23.36Zm6.44.21c3.46,0,5.21,1.24,5.21,3.49a3.3,3.3,0,0,1-2.56,3.25l2.68,5.29h-3.64l-2.26-4.78h-1V35.6h-3.31v-12Zm-1.54,5.3h1.18c1.45,0,2.17-.51,2.17-1.57s-.75-1.65-2.35-1.65h-1Z"/></svg>